<mxfile host="app.diagrams.net" modified="2024-06-26T10:02:13.217Z" agent="Mozilla/5.0 (Windows NT 10.0; Win64; x64) AppleWebKit/537.36 (KHTML, like Gecko) Chrome/126.0.0.0 Safari/537.36" etag="UtSZRfeKG2EaGrtYVgA3" version="24.6.3" type="github" pages="3">
  <diagram name="System Context" id="a2gW2ukG-RVeUHNg27eI">
    <mxGraphModel dx="1551" dy="815" grid="1" gridSize="10" guides="1" tooltips="1" connect="1" arrows="1" fold="1" page="1" pageScale="1" pageWidth="1100" pageHeight="850" math="0" shadow="0">
      <root>
        <mxCell id="0" />
        <mxCell id="1" parent="0" />
        <mxCell id="h4YwKP3WCVKz_5QJWk84-1" value="&lt;font color=&quot;#ffffff&quot;&gt;FSKX Model Creation Service&lt;/font&gt;&lt;div&gt;&lt;font color=&quot;#ffffff&quot;&gt;&lt;br&gt;&lt;/font&gt;&lt;/div&gt;&lt;div&gt;&lt;font color=&quot;#ffffff&quot;&gt;&lt;br&gt;&lt;/font&gt;&lt;/div&gt;" style="rounded=0;whiteSpace=wrap;html=1;strokeColor=none;fillColor=#0066CC;" vertex="1" parent="1">
          <mxGeometry x="105" y="410" width="190" height="85" as="geometry" />
        </mxCell>
        <mxCell id="h4YwKP3WCVKz_5QJWk84-2" value="" style="rounded=0;whiteSpace=wrap;html=1;strokeColor=none;fillColor=#B3B3B3;" vertex="1" parent="1">
          <mxGeometry x="370" y="395" width="120" height="60" as="geometry" />
        </mxCell>
        <mxCell id="h4YwKP3WCVKz_5QJWk84-3" value="" style="group" vertex="1" connectable="0" parent="1">
          <mxGeometry x="130" y="90" width="140" height="170" as="geometry" />
        </mxCell>
        <mxCell id="h4YwKP3WCVKz_5QJWk84-4" value="&lt;font color=&quot;#ffffff&quot;&gt;&lt;span style=&quot;font-size: 14px;&quot;&gt;Scientist&lt;/span&gt;&lt;/font&gt;&lt;br&gt;&lt;div&gt;&lt;font color=&quot;#ffffff&quot;&gt;&lt;br&gt;owner of published model and or model code&lt;/font&gt;&lt;/div&gt;" style="rounded=1;whiteSpace=wrap;html=1;fillColor=#3D4C99;strokeColor=none;" vertex="1" parent="h4YwKP3WCVKz_5QJWk84-3">
          <mxGeometry x="-20" y="60" width="180" height="110" as="geometry" />
        </mxCell>
        <mxCell id="h4YwKP3WCVKz_5QJWk84-5" value="" style="ellipse;whiteSpace=wrap;html=1;aspect=fixed;fillColor=#3D4C99;strokeColor=none;" vertex="1" parent="h4YwKP3WCVKz_5QJWk84-3">
          <mxGeometry x="30" width="80" height="80" as="geometry" />
        </mxCell>
        <mxCell id="h4YwKP3WCVKz_5QJWk84-6" value="" style="group" vertex="1" connectable="0" parent="1">
          <mxGeometry x="1240" y="40" width="140" height="170" as="geometry" />
        </mxCell>
        <mxCell id="h4YwKP3WCVKz_5QJWk84-7" value="&lt;font color=&quot;#ffffff&quot;&gt;&lt;span style=&quot;font-size: 14px;&quot;&gt;Scientist&lt;/span&gt;&lt;/font&gt;&lt;br&gt;&lt;div&gt;&lt;font color=&quot;#ffffff&quot;&gt;&lt;br&gt;has created and/or published a model, wants to convert it into FSKX&lt;/font&gt;&lt;/div&gt;" style="rounded=1;whiteSpace=wrap;html=1;fillColor=#3D4C99;strokeColor=none;" vertex="1" parent="h4YwKP3WCVKz_5QJWk84-6">
          <mxGeometry x="-20" y="60" width="180" height="110" as="geometry" />
        </mxCell>
        <mxCell id="h4YwKP3WCVKz_5QJWk84-8" value="" style="ellipse;whiteSpace=wrap;html=1;aspect=fixed;fillColor=#3D4C99;strokeColor=none;" vertex="1" parent="h4YwKP3WCVKz_5QJWk84-6">
          <mxGeometry x="30" width="80" height="80" as="geometry" />
        </mxCell>
        <mxCell id="h4YwKP3WCVKz_5QJWk84-9" value="" style="endArrow=classic;html=1;rounded=0;exitX=0.5;exitY=1;exitDx=0;exitDy=0;entryX=0.5;entryY=0;entryDx=0;entryDy=0;" edge="1" parent="1" source="h4YwKP3WCVKz_5QJWk84-4" target="h4YwKP3WCVKz_5QJWk84-1">
          <mxGeometry relative="1" as="geometry">
            <mxPoint x="620" y="320" as="sourcePoint" />
            <mxPoint x="200" y="390" as="targetPoint" />
          </mxGeometry>
        </mxCell>
        <mxCell id="h4YwKP3WCVKz_5QJWk84-10" value="uploads publication, model code&lt;div&gt;using&lt;/div&gt;" style="edgeLabel;resizable=0;html=1;;align=center;verticalAlign=middle;" connectable="0" vertex="1" parent="h4YwKP3WCVKz_5QJWk84-9">
          <mxGeometry relative="1" as="geometry" />
        </mxCell>
      </root>
    </mxGraphModel>
  </diagram>
  <diagram id="vMZNAIsnmDH3cPV2xLdA" name="Container diagram">
    <mxGraphModel dx="1551" dy="815" grid="1" gridSize="10" guides="1" tooltips="1" connect="1" arrows="1" fold="1" page="1" pageScale="1" pageWidth="1100" pageHeight="850" math="0" shadow="0">
      <root>
        <mxCell id="0" />
        <mxCell id="1" parent="0" />
      </root>
    </mxGraphModel>
  </diagram>
  <diagram id="3n_QLF1dL7qld2mrKDZA" name="Component Diagram">
    <mxGraphModel dx="517" dy="272" grid="1" gridSize="10" guides="1" tooltips="1" connect="1" arrows="1" fold="1" page="1" pageScale="1" pageWidth="1100" pageHeight="850" math="0" shadow="0">
      <root>
        <mxCell id="0" />
        <mxCell id="1" parent="0" />
      </root>
    </mxGraphModel>
  </diagram>
</mxfile>
